<?xml version="1.0" encoding="UTF-8" standalone="no"?>
<!DOCTYPE svg PUBLIC "-//W3C//DTD SVG 1.1//EN"
 "http://www.w3.org/Graphics/SVG/1.1/DTD/svg11.dtd">
<!-- Generated by graphviz version 2.40.1 (0)
 -->
<!-- Title: %3 Pages: 1 -->
<svg width="704pt" height="758pt"
 viewBox="0.00 0.00 703.77 758.01" xmlns="http://www.w3.org/2000/svg" xmlns:xlink="http://www.w3.org/1999/xlink">
<g id="graph0" class="graph" transform="scale(1 1) rotate(0) translate(4 754.0144)">
<title>%3</title>
<polygon fill="#111111" stroke="transparent" points="-4,4 -4,-754.0144 699.7737,-754.0144 699.7737,4 -4,4"/>
<!-- 1 -->
<g id="node1" class="node">
<title>1</title>
<polygon fill="#aa9955" stroke="#eeeeee" stroke-width="2" points="87.4316,-263.4528 87.4316,-296.2854 64.2154,-319.5016 31.3828,-319.5016 8.1666,-296.2854 8.1666,-263.4528 31.3828,-240.2366 64.2154,-240.2366 87.4316,-263.4528"/>
<polygon fill="none" stroke="#eeeeee" stroke-width="2" points="91.4148,-261.8029 91.4148,-297.9353 65.8653,-323.4848 29.7328,-323.4848 4.1833,-297.9353 4.1833,-261.8029 29.7328,-236.2534 65.8653,-236.2534 91.4148,-261.8029"/>
<polygon fill="none" stroke="#eeeeee" stroke-width="2" points="95.3981,-260.153 95.3981,-299.5853 67.5152,-327.4681 28.0829,-327.4681 .2001,-299.5853 .2001,-260.153 28.0829,-232.2701 67.5152,-232.2701 95.3981,-260.153"/>
<text text-anchor="middle" x="47.7991" y="-296.2691" font-family="Fira Sans" font-size="12.00" fill="#ffffff">1</text>
<text text-anchor="middle" x="47.7991" y="-283.2691" font-family="Fira Sans" font-size="12.00" fill="#ffffff">Sol</text>
<text text-anchor="middle" x="47.7991" y="-270.2691" font-family="Fira Sans" font-size="12.00" fill="#ffffff">SSS</text>
<text text-anchor="middle" x="47.7991" y="-257.2691" font-family="Fira Sans" font-size="12.00" fill="#ffffff">(0)</text>
</g>
<!-- 2 -->
<g id="node2" class="node">
<title>2</title>
<ellipse fill="#441144" stroke="#eeeeee" stroke-width="2" cx="106.1729" cy="-357.476" rx="18" ry="18"/>
<text text-anchor="middle" x="106.1729" y="-354.976" font-family="Fira Sans Bold" font-size="10.00" fill="#ffffff">2</text>
</g>
<!-- 2&#45;&gt;1 -->
<g id="edge1" class="edge">
<title>2&#45;&gt;1</title>
<path fill="none" stroke="#bbbbbb" d="M95.1933,-342.8787C89.909,-335.8534 83.2991,-327.0657 76.7081,-318.3031"/>
</g>
<!-- 3 -->
<g id="node3" class="node">
<title>3</title>
<ellipse fill="#441144" stroke="#eeeeee" stroke-width="2" cx="166.4179" cy="-301.249" rx="18" ry="18"/>
<text text-anchor="middle" x="166.4179" y="-298.749" font-family="Fira Sans Bold" font-size="10.00" fill="#ffffff">3</text>
</g>
<!-- 3&#45;&gt;1 -->
<g id="edge2" class="edge">
<title>3&#45;&gt;1</title>
<path fill="none" stroke="#bbbbbb" d="M152.7417,-288.7341C149.9036,-286.7582 146.8018,-284.9903 143.6166,-283.8393 128.5847,-278.4074 111.3523,-276.4911 95.6838,-276.2175"/>
</g>
<!-- 3&#45;&gt;2 -->
<g id="edge3" class="edge">
<title>3&#45;&gt;2</title>
<path fill="none" stroke="#bbbbbb" stroke-dasharray="5,2" d="M147.4034,-322.4996C146.1402,-323.7829 144.8712,-325.0392 143.6166,-326.2393 138.7991,-330.8477 133.4023,-335.5767 128.2384,-339.9161"/>
<polyline fill="none" stroke="#bbbbbb" points="154.4359,-315.0545 147.5691,-322.3241 "/>
<path fill="none" stroke="#bbbbbb" d="M147.3677,-315.2559C152.1273,-310.4095 159.0334,-317.2763 154.6373,-322.1227"/>
<polyline fill="none" stroke="#bbbbbb" points="120.4323,-346.341 128.1534,-339.986 "/>
<path fill="none" stroke="#bbbbbb" d="M127.4703,-347.0241C132.4588,-342.7874 126.4217,-335.0663 121.1154,-339.3029"/>
</g>
<!-- 4 -->
<g id="node4" class="node">
<title>4</title>
<ellipse fill="#441144" stroke="#eeeeee" stroke-width="2" cx="61.0173" cy="-357.1591" rx="18" ry="18"/>
<text text-anchor="middle" x="61.0173" y="-354.6591" font-family="Fira Sans Bold" font-size="10.00" fill="#ffffff">4</text>
</g>
<!-- 4&#45;&gt;1 -->
<g id="edge4" class="edge">
<title>4&#45;&gt;1</title>
<path fill="none" stroke="#bbbbbb" d="M57.9516,-339.2329C57.3415,-335.6654 56.6741,-331.7634 55.9824,-327.7186"/>
</g>
<!-- 4&#45;&gt;2 -->
<g id="edge5" class="edge">
<title>4&#45;&gt;2</title>
<path fill="none" stroke="#bbbbbb" d="M79.1237,-357.2861C82.068,-357.3068 85.1181,-357.3282 88.0626,-357.3489"/>
</g>
<!-- 4&#45;&gt;3 -->
<g id="edge6" class="edge">
<title>4&#45;&gt;3</title>
<path fill="none" stroke="#bbbbbb" d="M77.5747,-349.9201C82.3341,-347.8572 87.5367,-345.6194 92.3407,-343.5896 98.4822,-340.9947 99.9395,-340.1382 106.2112,-337.876 122.5889,-331.9686 128.9248,-335.5816 143.6166,-326.2393 147.9779,-323.4661 152.0351,-319.6465 155.4819,-315.8276"/>
</g>
<!-- 5 -->
<g id="node5" class="node">
<title>5</title>
<ellipse fill="#441144" stroke="#eeeeee" stroke-width="2" cx="157.8816" cy="-432.8308" rx="18" ry="18"/>
<text text-anchor="middle" x="157.8816" y="-430.3308" font-family="Fira Sans Bold" font-size="10.00" fill="#ffffff">5</text>
</g>
<!-- 5&#45;&gt;1 -->
<g id="edge7" class="edge">
<title>5&#45;&gt;1</title>
<path fill="none" stroke="#bbbbbb" d="M143.3793,-421.8484C129.025,-410.4228 107.1072,-391.418 92.2866,-371.3082 82.5461,-358.0915 74.0116,-342.41 67.0922,-327.7989"/>
</g>
<!-- 5&#45;&gt;2 -->
<g id="edge8" class="edge">
<title>5&#45;&gt;2</title>
<path fill="none" stroke="#bbbbbb" d="M147.6656,-417.9431C138.6004,-404.7323 125.4265,-385.5341 116.3677,-372.3327"/>
</g>
<!-- 5&#45;&gt;3 -->
<g id="edge9" class="edge">
<title>5&#45;&gt;3</title>
<path fill="none" stroke="#bbbbbb" d="M159.0506,-414.8108C160.6762,-389.7539 163.603,-344.6392 165.2356,-319.4736"/>
</g>
<!-- 5&#45;&gt;4 -->
<g id="edge10" class="edge">
<title>5&#45;&gt;4</title>
<path fill="none" stroke="#bbbbbb" d="M143.5889,-421.6651C125.2751,-407.3582 93.7106,-382.6995 75.3686,-368.3705"/>
</g>
<!-- 6 -->
<g id="node6" class="node">
<title>6</title>
<polygon fill="#111111" stroke="transparent" points="140.4166,-323.0393 104.4166,-323.0393 104.4166,-287.0393 140.4166,-287.0393 140.4166,-323.0393"/>
<text text-anchor="middle" x="122.4166" y="-303.1393" font-family="Fira Sans Bold" font-size="8.00" fill="#ffffff">6</text>
</g>
<!-- 6&#45;&gt;1 -->
<g id="edge11" class="edge">
<title>6&#45;&gt;1</title>
<path fill="none" stroke="#bbbbbb" stroke-dasharray="1,5" d="M96.7244,-296.3728C96.3458,-296.245 95.9654,-296.1167 95.5834,-295.9879"/>
<ellipse fill="none" stroke="#bbbbbb" cx="100.5636" cy="-297.6678" rx="4" ry="4"/>
</g>
<!-- 6&#45;&gt;2 -->
<g id="edge12" class="edge">
<title>6&#45;&gt;2</title>
<path fill="none" stroke="#bbbbbb" stroke-dasharray="1,5" d="M114.41,-330.8856C113.4226,-334.073 112.433,-337.2677 111.4994,-340.2813"/>
<ellipse fill="none" stroke="#bbbbbb" cx="115.6428" cy="-326.9059" rx="4" ry="4"/>
</g>
<!-- 6&#45;&gt;3 -->
<g id="edge13" class="edge">
<title>6&#45;&gt;3</title>
<path fill="none" stroke="#bbbbbb" stroke-dasharray="1,5" d="M147.8285,-302.8503C147.9888,-302.8365 148.1488,-302.8228 148.3086,-302.809"/>
<ellipse fill="none" stroke="#bbbbbb" cx="144.5529" cy="-303.1325" rx="4" ry="4"/>
</g>
<!-- 6&#45;&gt;4 -->
<g id="edge14" class="edge">
<title>6&#45;&gt;4</title>
<path fill="none" stroke="#bbbbbb" stroke-dasharray="1,5" d="M97.9743,-325.7876C90.1999,-332.387 81.8664,-339.461 75.0843,-345.2181"/>
<ellipse fill="none" stroke="#bbbbbb" cx="101.2774" cy="-322.9837" rx="4" ry="4"/>
</g>
<!-- 7 -->
<g id="node7" class="node">
<title>7</title>
<ellipse fill="#441144" stroke="#eeeeee" stroke-width="2" cx="124.4588" cy="-246.2601" rx="18" ry="18"/>
<text text-anchor="middle" x="124.4588" y="-243.7601" font-family="Fira Sans Bold" font-size="10.00" fill="#ffffff">7</text>
</g>
<!-- 7&#45;&gt;1 -->
<g id="edge15" class="edge">
<title>7&#45;&gt;1</title>
<path fill="none" stroke="#bbbbbb" d="M107.8248,-253.5527C103.8615,-255.2903 99.4369,-257.2301 94.8356,-259.2474"/>
</g>
<!-- 7&#45;&gt;2 -->
<g id="edge16" class="edge">
<title>7&#45;&gt;2</title>
<path fill="none" stroke="#bbbbbb" d="M113.1458,-260.3556C108.4782,-267.0553 103.6077,-275.4274 101.2166,-283.8393 95.9265,-302.4498 98.6014,-324.7251 101.6857,-339.8669"/>
</g>
<!-- 7&#45;&gt;3 -->
<g id="edge17" class="edge">
<title>7&#45;&gt;3</title>
<path fill="none" stroke="#bbbbbb" d="M135.483,-260.7078C141.6018,-268.7266 149.1913,-278.673 155.3216,-286.7069"/>
</g>
<!-- 7&#45;&gt;4 -->
<g id="edge18" class="edge">
<title>7&#45;&gt;4</title>
<path fill="none" stroke="#bbbbbb" stroke-dasharray="5,2" d="M109.3295,-270.3044C106.588,-274.7786 103.7854,-279.432 101.2166,-283.8393 92.0106,-299.6344 82.1337,-317.6329 74.4739,-331.8444"/>
<polyline fill="none" stroke="#bbbbbb" points="114.7768,-261.5084 109.5117,-270.0102 "/>
<path fill="none" stroke="#bbbbbb" d="M107.8934,-263.1268C104.5958,-268.7946 112.6725,-274.0597 116.3951,-268.3918"/>
<polyline fill="none" stroke="#bbbbbb" points="69.5607,-341.0044 74.2875,-332.192 "/>
<path fill="none" stroke="#bbbbbb" d="M76.3303,-338.9616C72.9588,-344.8365 64.587,-340.1098 67.5179,-334.2348"/>
</g>
<!-- 7&#45;&gt;5 -->
<g id="edge19" class="edge">
<title>7&#45;&gt;5</title>
<path fill="none" stroke="#bbbbbb" stroke-dasharray="5,2" d="M138.7208,-271.0413C140.6399,-275.2078 142.3724,-279.5681 143.6166,-283.8393 146.8951,-295.0943 152.6397,-364.514 155.7445,-404.505"/>
<polyline fill="none" stroke="#bbbbbb" points="134.0466,-261.804 138.5617,-270.7267 "/>
<path fill="none" stroke="#bbbbbb" d="M131.8428,-268.5229C135.0759,-274.4713 143.5525,-269.9563 140.7655,-264.0078"/>
<polyline fill="none" stroke="#bbbbbb" points="156.5281,-414.695 155.7613,-404.7244 "/>
<path fill="none" stroke="#bbbbbb" d="M161.13,-409.3263C161.3919,-415.9734 151.9198,-416.7401 151.1594,-410.0931"/>
</g>
<!-- 7&#45;&gt;6 -->
<g id="edge20" class="edge">
<title>7&#45;&gt;6</title>
<path fill="none" stroke="#bbbbbb" stroke-dasharray="1,5" d="M123.8238,-264.536C123.6687,-269.0013 123.4996,-273.8681 123.3342,-278.6295"/>
<ellipse fill="none" stroke="#bbbbbb" cx="123.1831" cy="-282.979" rx="4" ry="4"/>
</g>
<!-- 18 -->
<g id="node8" class="node">
<title>18</title>
<polygon fill="#115555" stroke="#eeeeee" points="392.2897,-449.0031 340.2897,-397.0031 392.2897,-345.0031 444.2897,-397.0031 392.2897,-449.0031"/>
<polyline fill="none" stroke="#eeeeee" points="348.775,-405.4884 348.775,-388.5178 "/>
<polyline fill="none" stroke="#eeeeee" points="383.8044,-353.4884 400.775,-353.4884 "/>
<polyline fill="none" stroke="#eeeeee" points="435.8044,-388.5178 435.8044,-405.4884 "/>
<polyline fill="none" stroke="#eeeeee" points="400.775,-440.5178 383.8044,-440.5178 "/>
<text text-anchor="middle" x="392.2897" y="-413.4031" font-family="Fira Sans" font-size="12.00" fill="#ffffff">18</text>
<text text-anchor="middle" x="392.2897" y="-400.4031" font-family="Fira Sans" font-size="12.00" fill="#ffffff">Baz</text>
<text text-anchor="middle" x="392.2897" y="-387.4031" font-family="Fira Sans" font-size="12.00" fill="#ffffff">BBB</text>
<text text-anchor="middle" x="392.2897" y="-374.4031" font-family="Fira Sans" font-size="12.00" fill="#ffffff">(3)</text>
</g>
<!-- 18&#45;&gt;3 -->
<g id="edge21" class="edge">
<title>18&#45;&gt;3</title>
<path fill="none" stroke="#bb8888" stroke-dasharray="5,2" d="M358.9606,-363.5821C348.9507,-355.2726 337.4413,-347.2325 325.5283,-341.9247 319.9115,-339.4221 317.8666,-341.1239 311.8451,-339.8778 270.1516,-331.2499 222.6006,-317.9505 193.5504,-309.4251"/>
<polyline fill="none" stroke="#bb8888" points="366.646,-370.2569 359.096,-363.6996 "/>
<path fill="none" stroke="#bb8888" d="M366.1496,-363.2032C371.0191,-367.5747 364.7897,-375.1248 359.5924,-370.7533"/>
<polyline fill="none" stroke="#bb8888" points="183.7298,-306.5177 193.3184,-309.3565 "/>
<path fill="none" stroke="#bb8888" d="M187.1047,-312.7314C193.5681,-314.624 196.265,-305.0353 189.9435,-303.1428"/>
</g>
<!-- 19 -->
<g id="node9" class="node">
<title>19</title>
<polygon fill="#115555" stroke="#eeeeee" points="470.3476,-148.2438 418.3476,-96.2438 470.3476,-44.2438 522.3476,-96.2438 470.3476,-148.2438"/>
<polyline fill="none" stroke="#eeeeee" points="426.8329,-104.7291 426.8329,-87.7585 "/>
<polyline fill="none" stroke="#eeeeee" points="461.8624,-52.7291 478.8329,-52.7291 "/>
<polyline fill="none" stroke="#eeeeee" points="513.8624,-87.7585 513.8624,-104.7291 "/>
<polyline fill="none" stroke="#eeeeee" points="478.8329,-139.7585 461.8624,-139.7585 "/>
<text text-anchor="middle" x="470.3476" y="-112.6438" font-family="Fira Sans" font-size="12.00" fill="#ffffff">19</text>
<text text-anchor="middle" x="470.3476" y="-99.6438" font-family="Fira Sans" font-size="12.00" fill="#ffffff">Qux</text>
<text text-anchor="middle" x="470.3476" y="-86.6438" font-family="Fira Sans" font-size="12.00" fill="#ffffff">SSS</text>
<text text-anchor="middle" x="470.3476" y="-73.6438" font-family="Fira Sans" font-size="12.00" fill="#ffffff">(7)</text>
</g>
<!-- 19&#45;&gt;18 -->
<g id="edge22" class="edge">
<title>19&#45;&gt;18</title>
<path fill="none" stroke="#bb8888" stroke-dasharray="5,2" d="M465.8051,-154.8903C464.2706,-167.585 462.24,-180.8778 459.564,-193.1443 447.54,-248.2611 426.2157,-309.4692 410.7927,-350.2965"/>
<polyline fill="none" stroke="#bb8888" points="466.9323,-144.8686 465.8145,-154.806 "/>
<path fill="none" stroke="#bb8888" d="M461.4047,-149.2784C462.3983,-142.6535 471.8388,-143.7713 471.3421,-150.3962"/>
<polyline fill="none" stroke="#bb8888" points="407.205,-359.7092 410.7667,-350.3649 "/>
<path fill="none" stroke="#bb8888" d="M413.658,-356.8179C415.7989,-350.5884 406.9218,-347.0267 404.3138,-353.2562"/>
</g>
<!-- 20 -->
<g id="node10" class="node">
<title>20</title>
<ellipse fill="#222222" stroke="#eeeeee" cx="547.1199" cy="-558.741" rx="18" ry="18"/>
<text text-anchor="middle" x="547.1199" y="-556.241" font-family="Fira Sans Bold" font-size="10.00" fill="#ffffff">20</text>
</g>
<!-- 20&#45;&gt;19 -->
<g id="edge23" class="edge">
<title>20&#45;&gt;19</title>
<path fill="none" stroke="#bb8888" stroke-dasharray="5,2" d="M546.8874,-530.3504C545.7421,-466.2116 539.3852,-305.6619 505.2123,-176.7132 501.9502,-164.4036 497.0979,-151.5478 492.0429,-139.8167"/>
<polyline fill="none" stroke="#bb8888" points="547.0382,-540.4891 546.8894,-530.4902 "/>
<path fill="none" stroke="#bb8888" d="M551.9632,-535.4152C551.8125,-542.0812 542.3135,-542.23 541.9643,-535.5641"/>
<polyline fill="none" stroke="#bb8888" points="487.9719,-130.6816 492.0425,-139.8156 "/>
<path fill="none" stroke="#bb8888" d="M485.4402,-137.2839C488.3822,-143.3733 497.0596,-139.3027 494.5742,-133.2133"/>
</g>
<!-- 21 -->
<g id="node11" class="node">
<title>21</title>
<polygon fill="#337733" stroke="#eeeeee" points="319.8332,-700.7852 267.8332,-648.7852 319.8332,-596.7852 371.8332,-648.7852 319.8332,-700.7852"/>
<polyline fill="none" stroke="#eeeeee" points="276.3185,-657.2705 276.3185,-640.2999 "/>
<polyline fill="none" stroke="#eeeeee" points="311.3479,-605.2705 328.3185,-605.2705 "/>
<polyline fill="none" stroke="#eeeeee" points="363.3479,-640.2999 363.3479,-657.2705 "/>
<polyline fill="none" stroke="#eeeeee" points="328.3185,-692.2999 311.3479,-692.2999 "/>
<text text-anchor="middle" x="319.8332" y="-665.1852" font-family="Fira Sans" font-size="12.00" fill="#ffffff">21</text>
<text text-anchor="middle" x="319.8332" y="-652.1852" font-family="Fira Sans" font-size="12.00" fill="#ffffff">Bar</text>
<text text-anchor="middle" x="319.8332" y="-639.1852" font-family="Fira Sans" font-size="12.00" fill="#ffffff">BSB</text>
<text text-anchor="middle" x="319.8332" y="-626.1852" font-family="Fira Sans" font-size="12.00" fill="#ffffff">(4)</text>
</g>
<!-- 21&#45;&gt;20 -->
<g id="edge24" class="edge">
<title>21&#45;&gt;20</title>
<path fill="none" stroke="#bbbbbb" d="M360.9651,-637.6658C394.8178,-627.9326 443.7081,-612.5275 484.5824,-594.3535 501.3647,-586.8916 519.4939,-576.2568 531.8896,-568.5534"/>
</g>
<!-- 22 -->
<g id="node12" class="node">
<title>22</title>
<polygon fill="#115511" stroke="#eeeeee" points="236.1945,-540.4626 184.1945,-488.4626 236.1945,-436.4626 288.1945,-488.4626 236.1945,-540.4626"/>
<polyline fill="none" stroke="#eeeeee" points="192.6798,-496.9479 192.6798,-479.9773 "/>
<polyline fill="none" stroke="#eeeeee" points="227.7092,-444.9479 244.6798,-444.9479 "/>
<polyline fill="none" stroke="#eeeeee" points="279.7092,-479.9773 279.7092,-496.9479 "/>
<polyline fill="none" stroke="#eeeeee" points="244.6798,-531.9773 227.7092,-531.9773 "/>
<text text-anchor="middle" x="236.1945" y="-504.8626" font-family="Fira Sans" font-size="12.00" fill="#ffffff">22</text>
<text text-anchor="middle" x="236.1945" y="-491.8626" font-family="Fira Sans" font-size="12.00" fill="#ffffff">Foo</text>
<text text-anchor="middle" x="236.1945" y="-478.8626" font-family="Fira Sans" font-size="12.00" fill="#ffffff">BBS</text>
<text text-anchor="middle" x="236.1945" y="-465.8626" font-family="Fira Sans" font-size="12.00" fill="#ffffff">(3)</text>
</g>
<!-- 22&#45;&gt;21 -->
<g id="edge25" class="edge">
<title>22&#45;&gt;21</title>
<path fill="none" stroke="#88bb88" stroke-width="2" d="M273.8927,-521.0456C280.8012,-528.4688 287.3772,-536.7347 292.3156,-545.375 300.3596,-559.4491 306.117,-575.943 310.212,-591.572"/>
<polygon fill="#88bb88" stroke="#88bb88" stroke-width="2" points="273.5062,-520.6555 266.4421,-519.2069 265.0623,-512.129 272.1264,-513.5776 273.5062,-520.6555"/>
<polygon fill="#88bb88" stroke="#88bb88" stroke-width="2" points="310.2265,-591.6326 315.5174,-596.5321 313.0297,-603.3006 307.7388,-598.401 310.2265,-591.6326"/>
<text text-anchor="middle" x="306.4396" y="-557.2234" font-family="Fira Sans Bold" font-size="10.00" fill="#88ee88">O : E</text>
</g>
<!-- 23 -->
<g id="node13" class="node">
<title>23</title>
<polygon fill="#333377" stroke="#eeeeee" points="502.5824,-578.7158 484.5824,-591.1535 466.5824,-578.7158 466.5992,-558.5912 502.5656,-558.5912 502.5824,-578.7158"/>
<text text-anchor="middle" x="484.5824" y="-570.0535" font-family="Fira Sans" font-size="12.00" fill="#ffffff">23</text>
</g>
<!-- 23&#45;&gt;22 -->
<g id="edge26" class="edge">
<title>23&#45;&gt;22</title>
<path fill="none" stroke="#bbbbbb" d="M466.3178,-566.926C426.2092,-553.2505 329.6811,-520.338 275.242,-501.7763"/>
</g>
<!-- 24 -->
<g id="node14" class="node">
<title>24</title>
<polygon fill="#555566" stroke="#eeeeee" stroke-width="2" points="369.1541,-280.7198 369.1541,-313.5249 345.9575,-336.7215 313.1525,-336.7215 289.9558,-313.5249 289.9558,-280.7198 313.1525,-257.5232 345.9575,-257.5232 369.1541,-280.7198"/>
<text text-anchor="middle" x="329.555" y="-313.5223" font-family="Fira Sans" font-size="12.00" fill="#ffffff">24</text>
<text text-anchor="middle" x="329.555" y="-300.5223" font-family="Fira Sans" font-size="12.00" fill="#ffffff">Quux</text>
<text text-anchor="middle" x="329.555" y="-287.5223" font-family="Fira Sans" font-size="12.00" fill="#ffffff">SSS</text>
<text text-anchor="middle" x="329.555" y="-274.5223" font-family="Fira Sans" font-size="12.00" fill="#ffffff">(9)</text>
</g>
<!-- 24&#45;&gt;22 -->
<g id="edge27" class="edge">
<title>24&#45;&gt;22</title>
<path fill="none" stroke="#bbbbbb" stroke-dasharray="5,2" d="M291.846,-330.1301C288.6375,-333.9017 285.658,-337.8589 283.1283,-341.9247 265.5809,-370.127 254.0071,-405.5027 246.7437,-434.4305"/>
<polyline fill="none" stroke="#bbbbbb" points="298.6828,-322.6739 291.9245,-330.0445 "/>
<path fill="none" stroke="#bbbbbb" d="M291.6184,-322.98C287.2971,-327.8937 294.2991,-334.6521 298.989,-329.7383"/>
<polyline fill="none" stroke="#bbbbbb" points="244.3516,-444.3714 246.6912,-434.6489 "/>
<path fill="none" stroke="#bbbbbb" d="M250.3826,-440.6799C248.5798,-447.1616 239.3435,-444.8219 240.6602,-438.3403"/>
</g>
<!-- 24&#45;&gt;23 -->
<g id="edge28" class="edge">
<title>24&#45;&gt;23</title>
<path fill="none" stroke="#bbbbbb" d="M328.3121,-337.0551C328.7477,-356.4925 330.837,-379.9738 337.0897,-400.2031 352.2367,-449.2077 361.8151,-460.9432 395.0919,-499.9757 416.4456,-525.0228 447.1668,-548.0105 466.4898,-561.2981"/>
</g>
<!-- 25 -->
<g id="node15" class="node">
<title>25</title>
<ellipse fill="#222222" stroke="#eeeeee" cx="605.6786" cy="-368.5961" rx="18" ry="18"/>
<text text-anchor="middle" x="605.6786" y="-366.0961" font-family="Fira Sans Bold" font-size="10.00" fill="#ffffff">25</text>
</g>
<!-- 25&#45;&gt;24 -->
<g id="edge29" class="edge">
<title>25&#45;&gt;24</title>
<path fill="none" stroke="#bbbbbb" d="M587.9858,-364.0163C544.3018,-352.7089 430.4617,-323.2417 369.4856,-307.4583"/>
</g>
<!-- 26 -->
<g id="node16" class="node">
<title>26</title>
<ellipse fill="#222222" stroke="#eeeeee" cx="677.7737" cy="-202.2925" rx="18" ry="18"/>
<text text-anchor="middle" x="677.7737" y="-199.7925" font-family="Fira Sans Bold" font-size="10.00" fill="#ffffff">26</text>
</g>
<!-- 26&#45;&gt;25 -->
<g id="edge30" class="edge">
<title>26&#45;&gt;25</title>
<path fill="none" stroke="#bbbbbb" d="M670.5974,-218.8463C656.8495,-250.559 626.9327,-319.5689 613.0406,-351.6141"/>
</g>
<!-- 27 -->
<g id="node17" class="node">
<title>27</title>
<ellipse fill="#222222" stroke="#eeeeee" cx="589.3353" cy="-183.3166" rx="18" ry="18"/>
<text text-anchor="middle" x="589.3353" y="-180.8166" font-family="Fira Sans Bold" font-size="10.00" fill="#ffffff">27</text>
</g>
<!-- 27&#45;&gt;26 -->
<g id="edge31" class="edge">
<title>27&#45;&gt;26</title>
<path fill="none" stroke="#bbbbbb" d="M598.392,-198.8974C602.0169,-203.6471 606.6542,-208.2948 612.1654,-210.8866 627.6547,-218.1707 647.339,-214.0643 661.0879,-209.3591"/>
</g>
<!-- 28 -->
<g id="node18" class="node">
<title>28</title>
<ellipse fill="#222222" stroke="#eeeeee" cx="439.9643" cy="-193.0296" rx="18" ry="18"/>
<text text-anchor="middle" x="439.9643" y="-190.5296" font-family="Fira Sans Bold" font-size="10.00" fill="#ffffff">28</text>
</g>
<!-- 28&#45;&gt;27 -->
<g id="edge32" class="edge">
<title>28&#45;&gt;27</title>
<path fill="none" stroke="#bb8888" stroke-dasharray="5,2" d="M462.5166,-176.8098C462.6151,-176.777 462.7137,-176.7448 462.8123,-176.7132 495.5825,-166.2134 535.5514,-171.0129 561.6822,-176.3336"/>
<polyline fill="none" stroke="#bb8888" points="453.7256,-181.1916 462.6755,-176.7306 "/>
<path fill="none" stroke="#bb8888" d="M460.4311,-183.436C454.353,-186.41 450.115,-177.4602 455.97,-174.4862"/>
<polyline fill="none" stroke="#bb8888" points="571.6398,-178.5239 561.8733,-176.3756 "/>
<path fill="none" stroke="#bb8888" d="M567.8307,-172.5665C561.266,-171.1343 559.225,-180.9008 565.6824,-182.333"/>
</g>
<!-- 29 -->
<g id="node19" class="node">
<title>29</title>
<ellipse fill="#773333" stroke="#eeeeee" cx="232.1223" cy="-83.0018" rx="18" ry="18"/>
<text text-anchor="middle" x="232.1223" y="-80.5018" font-family="Fira Sans Bold" font-size="10.00" fill="#ffffff">29</text>
</g>
<!-- 29&#45;&gt;7 -->
<g id="edge33" class="edge">
<title>29&#45;&gt;7</title>
<path fill="none" stroke="#bb8888" stroke-dasharray="5,2" d="M216.6371,-106.4832C196.1909,-137.4872 160.3959,-191.7659 139.9478,-222.7729"/>
<polyline fill="none" stroke="#bb8888" points="222.1866,-98.0681 216.6812,-106.4163 "/>
<path fill="none" stroke="#bb8888" d="M215.2598,-99.4895C211.7982,-105.0549 219.729,-110.5603 223.6079,-104.9949"/>
<polyline fill="none" stroke="#bb8888" points="134.3705,-231.2302 139.8759,-222.882 "/>
<path fill="none" stroke="#bb8888" d="M141.2973,-229.8088C137.4183,-235.3742 129.4876,-229.8688 132.9491,-224.3034"/>
</g>
<!-- 29&#45;&gt;28 -->
<g id="edge34" class="edge">
<title>29&#45;&gt;28</title>
<path fill="none" stroke="#bbbbbb" d="M250.1031,-85.8543C285.5679,-92.279 365.5103,-110.8098 416.5398,-153.7611 423.7063,-159.7931 429.243,-168.6075 433.1298,-176.3576"/>
</g>
<!-- 32 -->
<g id="node20" class="node">
<title>32</title>
<polygon fill="#111111" stroke="transparent" points="287.9457,-748.1045 251.9457,-748.1045 251.9457,-712.1045 287.9457,-712.1045 287.9457,-748.1045"/>
<text text-anchor="middle" x="269.9457" y="-728.2045" font-family="Fira Sans Bold" font-size="8.00" fill="#ffffff">32</text>
</g>
<!-- 32&#45;&gt;21 -->
<g id="edge35" class="edge">
<title>32&#45;&gt;21</title>
<path fill="none" stroke="#bbbbbb" stroke-dasharray="1,5" d="M285.4191,-704.882C290.0175,-697.3864 295.1201,-689.0689 299.9573,-681.184"/>
<ellipse fill="none" stroke="#bbbbbb" cx="283.1091" cy="-708.6476" rx="4" ry="4"/>
</g>
<!-- 49 -->
<g id="node21" class="node">
<title>49</title>
<polygon fill="#111111" stroke="transparent" points="483.3596,-36 447.3596,-36 447.3596,0 483.3596,0 483.3596,-36"/>
<text text-anchor="middle" x="465.3596" y="-16.1" font-family="Fira Sans Bold" font-size="8.00" fill="#ffffff">49</text>
</g>
<!-- 49&#45;&gt;19 -->
<g id="edge36" class="edge">
<title>49&#45;&gt;19</title>
<path fill="none" stroke="#bbbbbb" stroke-dasharray="1,5" d="M467.037,-44.3126C467.0975,-45.2615 467.1587,-46.2218 467.2205,-47.1907"/>
<ellipse fill="none" stroke="#bbbbbb" cx="466.771" cy="-40.1393" rx="4" ry="4"/>
</g>
<!-- 88 -->
<g id="node22" class="node">
<title>88</title>
<polygon fill="#111111" stroke="transparent" points="651.3654,-207.6866 615.3654,-207.6866 615.3654,-171.6866 651.3654,-171.6866 651.3654,-207.6866"/>
<text text-anchor="middle" x="633.3654" y="-187.7866" font-family="Fira Sans Bold" font-size="8.00" fill="#ffffff">88</text>
</g>
<!-- 88&#45;&gt;26 -->
<g id="edge37" class="edge">
<title>88&#45;&gt;26</title>
<path fill="none" stroke="#bbbbbb" stroke-dasharray="1,5" d="M659.3304,-197.0571C659.7037,-197.163 660.0755,-197.2686 660.4454,-197.3736"/>
<ellipse fill="none" stroke="#bbbbbb" cx="655.276" cy="-195.9062" rx="4" ry="4"/>
</g>
<!-- 88&#45;&gt;27 -->
<g id="edge38" class="edge">
<title>88&#45;&gt;27</title>
<path fill="none" stroke="#bbbbbb" stroke-dasharray="1,5" d="M607.6698,-185.9691C607.5038,-185.9451 607.338,-185.9211 607.1726,-185.8972"/>
<ellipse fill="none" stroke="#bbbbbb" cx="611.2437" cy="-186.4861" rx="4" ry="4"/>
</g>
<!-- 99 -->
<g id="node23" class="node">
<title>99</title>
<ellipse fill="#115555" stroke="#eeeeee" cx="128.053" cy="-523.2415" rx="18" ry="18"/>
<text text-anchor="middle" x="128.053" y="-520.7415" font-family="Fira Sans Bold" font-size="10.00" fill="#ffffff">99</text>
</g>
<!-- 99&#45;&gt;4 -->
<g id="edge39" class="edge">
<title>99&#45;&gt;4</title>
<path fill="none" stroke="#bbbbbb" stroke-dasharray="5,2" d="M117.4549,-496.9845C104.9061,-465.8946 84.1316,-414.4253 71.5928,-383.36"/>
<polyline fill="none" stroke="#bbbbbb" points="121.2564,-506.4027 117.5134,-497.1296 "/>
<path fill="none" stroke="#bbbbbb" d="M124.0214,-499.8946C126.2849,-506.0767 117.4755,-509.8197 114.7483,-503.6376"/>
<polyline fill="none" stroke="#bbbbbb" points="67.832,-374.0425 71.5749,-383.3156 "/>
<path fill="none" stroke="#bbbbbb" d="M65.0669,-380.5505C67.794,-386.7326 76.6035,-382.9897 74.34,-376.8076"/>
</g>
<!-- 99&#45;&gt;5 -->
<g id="edge40" class="edge">
<title>99&#45;&gt;5</title>
<path fill="none" stroke="#bbbbbb" stroke-dasharray="5,2" d="M128.5108,-494.8502C129.5585,-483.047 131.9165,-469.4574 136.9578,-458.0022 137.573,-456.6043 138.2896,-455.2226 139.0796,-453.8689"/>
<polyline fill="none" stroke="#bbbbbb" points="127.8775,-505.0751 128.4958,-495.0942 "/>
<path fill="none" stroke="#bbbbbb" d="M133.1771,-500.3937C132.5154,-507.0477 123.0336,-506.4294 123.1962,-499.7755"/>
<polyline fill="none" stroke="#bbbbbb" points="145.0596,-445.4711 139.259,-453.6169 "/>
<path fill="none" stroke="#bbbbbb" d="M138.0864,-446.6437C134.423,-452.0742 142.1616,-457.8748 146.2322,-452.4442"/>
</g>
<!-- 101 -->
<g id="node24" class="node">
<title>101</title>
<polygon fill="#111111" stroke="transparent" points="176.1578,-497.2022 140.1578,-497.2022 140.1578,-461.2022 176.1578,-461.2022 176.1578,-497.2022"/>
<text text-anchor="middle" x="158.1578" y="-477.3022" font-family="Fira Sans Bold" font-size="8.00" fill="#ffffff">101</text>
</g>
<!-- 101&#45;&gt;5 -->
<g id="edge41" class="edge">
<title>101&#45;&gt;5</title>
<path fill="none" stroke="#bbbbbb" stroke-dasharray="1,5" d="M158.0026,-453.1408C157.9981,-452.3951 157.9937,-451.6534 157.9893,-450.9189"/>
<ellipse fill="none" stroke="#bbbbbb" cx="158.0264" cy="-457.1411" rx="4" ry="4"/>
</g>
<!-- 101&#45;&gt;22 -->
<g id="edge42" class="edge">
<title>101&#45;&gt;22</title>
<path fill="none" stroke="#bbbbbb" stroke-dasharray="1,5" d="M184.2887,-482.3031C185.9683,-482.5024 187.6838,-482.706 189.4206,-482.9121"/>
<ellipse fill="none" stroke="#bbbbbb" cx="180.2293" cy="-481.8214" rx="4" ry="4"/>
</g>
<!-- 101&#45;&gt;99 -->
<g id="edge43" class="edge">
<title>101&#45;&gt;99</title>
<path fill="none" stroke="#bbbbbb" stroke-dasharray="1,5" d="M141.0765,-504.1899C140.1481,-505.5481 139.2301,-506.891 138.3371,-508.1973"/>
<ellipse fill="none" stroke="#bbbbbb" cx="143.4819" cy="-500.6711" rx="4" ry="4"/>
</g>
<!-- 115 -->
<g id="node25" class="node">
<title>115</title>
<polygon fill="#111111" stroke="transparent" points="289.1156,-584.575 253.1156,-584.575 253.1156,-548.575 289.1156,-548.575 289.1156,-584.575"/>
<text text-anchor="middle" x="271.1156" y="-564.675" font-family="Fira Sans Bold" font-size="8.00" fill="#ffffff">115</text>
</g>
<!-- 115&#45;&gt;22 -->
<g id="edge44" class="edge">
<title>115&#45;&gt;22</title>
<path fill="none" stroke="#bbbbbb" stroke-dasharray="1,5" d="M259.7157,-541.0754C257.3651,-535.8176 254.8473,-530.1857 252.3645,-524.632"/>
<ellipse fill="none" stroke="#bbbbbb" cx="261.3837" cy="-544.8064" rx="4" ry="4"/>
</g>
<!-- 119 -->
<g id="node26" class="node">
<title>119</title>
<polygon fill="#111111" stroke="transparent" points="322.3283,-381.1247 286.3283,-381.1247 286.3283,-345.1247 322.3283,-345.1247 322.3283,-381.1247"/>
<text text-anchor="middle" x="304.3283" y="-361.2247" font-family="Fira Sans Bold" font-size="8.00" fill="#ffffff">119</text>
</g>
<!-- 119&#45;&gt;18 -->
<g id="edge45" class="edge">
<title>119&#45;&gt;18</title>
<path fill="none" stroke="#bbbbbb" stroke-dasharray="1,5" d="M330.3759,-373.1569C337.9434,-376.0716 346.3656,-379.3154 354.4996,-382.4482"/>
<ellipse fill="none" stroke="#bbbbbb" cx="326.2867" cy="-371.582" rx="4" ry="4"/>
</g>
<!-- 119&#45;&gt;24 -->
<g id="edge46" class="edge">
<title>119&#45;&gt;24</title>
<path fill="none" stroke="#bbbbbb" stroke-dasharray="1,5" d="M314.142,-337.4485C314.2091,-337.2727 314.2764,-337.0966 314.3438,-336.9203"/>
<ellipse fill="none" stroke="#bbbbbb" cx="312.6497" cy="-341.3528" rx="4" ry="4"/>
</g>
<!-- 121 -->
<g id="node27" class="node">
<title>121</title>
<polygon fill="#111111" stroke="transparent" points="332.244,-486.2952 296.244,-486.2952 296.244,-450.2952 332.244,-450.2952 332.244,-486.2952"/>
<text text-anchor="middle" x="314.244" y="-466.3952" font-family="Fira Sans Bold" font-size="8.00" fill="#ffffff">121</text>
</g>
<!-- 121&#45;&gt;22 -->
<g id="edge47" class="edge">
<title>121&#45;&gt;22</title>
<path fill="none" stroke="#bbbbbb" stroke-dasharray="1,5" d="M288.1182,-475.046C284.7431,-475.918 281.2231,-476.8276 277.6759,-477.7441"/>
<ellipse fill="none" stroke="#bbbbbb" cx="292.2689" cy="-473.9735" rx="4" ry="4"/>
</g>
<!-- 132 -->
<g id="node28" class="node">
<title>132</title>
<polygon fill="#111111" stroke="transparent" points="146.7827,-593.1775 110.7827,-593.1775 110.7827,-557.1775 146.7827,-557.1775 146.7827,-593.1775"/>
<text text-anchor="middle" x="128.7827" y="-573.2775" font-family="Fira Sans Bold" font-size="8.00" fill="#ffffff">132</text>
</g>
<!-- 132&#45;&gt;99 -->
<g id="edge48" class="edge">
<title>132&#45;&gt;99</title>
<path fill="none" stroke="#bbbbbb" stroke-dasharray="1,5" d="M128.4115,-548.758C128.377,-546.2984 128.3425,-543.8442 128.3093,-541.4837"/>
<ellipse fill="none" stroke="#bbbbbb" cx="128.4713" cy="-553.0132" rx="4" ry="4"/>
</g>
<!-- 171 -->
<g id="node29" class="node">
<title>171</title>
<polygon fill="#111111" stroke="transparent" points="102.011,-521.3624 66.011,-521.3624 66.011,-485.3624 102.011,-485.3624 102.011,-521.3624"/>
<text text-anchor="middle" x="84.011" y="-501.4624" font-family="Fira Sans Bold" font-size="8.00" fill="#ffffff">171</text>
</g>
<!-- 171&#45;&gt;99 -->
<g id="edge49" class="edge">
<title>171&#45;&gt;99</title>
<path fill="none" stroke="#bbbbbb" stroke-dasharray="1,5" d="M109.58,-514.9034C110.2657,-515.2129 110.9466,-515.5203 111.6201,-515.8243"/>
<ellipse fill="none" stroke="#bbbbbb" cx="105.8246" cy="-513.2084" rx="4" ry="4"/>
</g>
<!-- 181 -->
<g id="node30" class="node">
<title>181</title>
<polygon fill="#111111" stroke="transparent" points="488.3259,-413.5401 452.3259,-413.5401 452.3259,-377.5401 488.3259,-377.5401 488.3259,-413.5401"/>
<text text-anchor="middle" x="470.3259" y="-393.6401" font-family="Fira Sans Bold" font-size="8.00" fill="#ffffff">181</text>
</g>
<!-- 181&#45;&gt;18 -->
<g id="edge50" class="edge">
<title>181&#45;&gt;18</title>
<path fill="none" stroke="#bbbbbb" stroke-dasharray="1,5" d="M444.2045,-396.0298C443.9153,-396.0352 443.625,-396.0407 443.3337,-396.0461"/>
<ellipse fill="none" stroke="#bbbbbb" cx="448.2274" cy="-395.9544" rx="4" ry="4"/>
</g>
<!-- 414 -->
<g id="node31" class="node">
<title>414</title>
<polygon fill="#111111" stroke="transparent" points="420.0362,-683.7165 384.0362,-683.7165 384.0362,-647.7165 420.0362,-647.7165 420.0362,-683.7165"/>
<text text-anchor="middle" x="402.0362" y="-663.8165" font-family="Fira Sans Bold" font-size="8.00" fill="#ffffff">414</text>
</g>
<!-- 414&#45;&gt;21 -->
<g id="edge51" class="edge">
<title>414&#45;&gt;21</title>
<path fill="none" stroke="#bbbbbb" stroke-dasharray="1,5" d="M375.8637,-660.3258C371.8186,-659.4926 367.5502,-658.6134 363.2478,-657.7273"/>
<ellipse fill="none" stroke="#bbbbbb" cx="379.8749" cy="-661.1519" rx="4" ry="4"/>
</g>
<!-- 431 -->
<g id="node32" class="node">
<title>431</title>
<polygon fill="#111111" stroke="transparent" points="502.0123,-215.9132 466.0123,-215.9132 466.0123,-179.9132 502.0123,-179.9132 502.0123,-215.9132"/>
<text text-anchor="middle" x="484.0123" y="-196.0132" font-family="Fira Sans Bold" font-size="8.00" fill="#ffffff">431</text>
</g>
<!-- 431&#45;&gt;28 -->
<g id="edge52" class="edge">
<title>431&#45;&gt;28</title>
<path fill="none" stroke="#bbbbbb" stroke-dasharray="1,5" d="M458.5735,-195.0928C458.413,-195.075 458.2528,-195.0573 458.0929,-195.0395"/>
<ellipse fill="none" stroke="#bbbbbb" cx="461.8664" cy="-195.4579" rx="4" ry="4"/>
</g>
<!-- 523 -->
<g id="node33" class="node">
<title>523</title>
<polygon fill="#111111" stroke="transparent" points="102.0324,-568.0481 66.0324,-568.0481 66.0324,-532.0481 102.0324,-532.0481 102.0324,-568.0481"/>
<text text-anchor="middle" x="84.0324" y="-548.1481" font-family="Fira Sans Bold" font-size="8.00" fill="#ffffff">523</text>
</g>
<!-- 523&#45;&gt;99 -->
<g id="edge53" class="edge">
<title>523&#45;&gt;99</title>
<path fill="none" stroke="#bbbbbb" stroke-dasharray="1,5" d="M109.295,-534.6643C110.3651,-534.0127 111.4246,-533.3675 112.4633,-532.735"/>
<ellipse fill="none" stroke="#bbbbbb" cx="105.6078" cy="-536.9096" rx="4" ry="4"/>
</g>
<!-- 702 -->
<g id="node34" class="node">
<title>702</title>
<polygon fill="#111111" stroke="transparent" points="413.8998,-251.8563 377.8998,-251.8563 377.8998,-215.8563 413.8998,-215.8563 413.8998,-251.8563"/>
<text text-anchor="middle" x="395.8998" y="-231.9563" font-family="Fira Sans Bold" font-size="8.00" fill="#ffffff">702</text>
</g>
<!-- 702&#45;&gt;24 -->
<g id="edge54" class="edge">
<title>702&#45;&gt;24</title>
<path fill="none" stroke="#bbbbbb" stroke-dasharray="1,5" d="M371.9492,-256.6954C367.5495,-260.8909 362.9147,-265.3107 358.3894,-269.626"/>
<ellipse fill="none" stroke="#bbbbbb" cx="374.8759" cy="-253.9045" rx="4" ry="4"/>
</g>
<!-- 702&#45;&gt;28 -->
<g id="edge55" class="edge">
<title>702&#45;&gt;28</title>
<path fill="none" stroke="#bbbbbb" stroke-dasharray="1,5" d="M420.0057,-211.5217C422.2443,-209.4476 424.4541,-207.4002 426.5416,-205.4661"/>
<ellipse fill="none" stroke="#bbbbbb" cx="417.0111" cy="-214.2962" rx="4" ry="4"/>
</g>
<!-- 704 -->
<g id="node35" class="node">
<title>704</title>
<polygon fill="#111111" stroke="transparent" points="434.2919,-496.7757 398.2919,-496.7757 398.2919,-460.7757 434.2919,-460.7757 434.2919,-496.7757"/>
<text text-anchor="middle" x="416.2919" y="-476.8757" font-family="Fira Sans Bold" font-size="8.00" fill="#ffffff">704</text>
</g>
<!-- 704&#45;&gt;18 -->
<g id="edge56" class="edge">
<title>704&#45;&gt;18</title>
<path fill="none" stroke="#bbbbbb" stroke-dasharray="1,5" d="M408.6656,-452.794C407.2351,-447.9204 405.7085,-442.7194 404.1842,-437.5263"/>
<ellipse fill="none" stroke="#bbbbbb" cx="409.8384" cy="-456.7896" rx="4" ry="4"/>
</g>
<!-- 870 -->
<g id="node36" class="node">
<title>870</title>
<polygon fill="#111111" stroke="transparent" points="413.3398,-192.9611 377.3398,-192.9611 377.3398,-156.9611 413.3398,-156.9611 413.3398,-192.9611"/>
<text text-anchor="middle" x="395.3398" y="-173.0611" font-family="Fira Sans Bold" font-size="8.00" fill="#ffffff">870</text>
</g>
<!-- 870&#45;&gt;19 -->
<g id="edge57" class="edge">
<title>870&#45;&gt;19</title>
<path fill="none" stroke="#bbbbbb" stroke-dasharray="1,5" d="M418.3256,-150.8385C426.6989,-142.0511 436.2139,-132.0655 444.7964,-123.0587"/>
<ellipse fill="none" stroke="#bbbbbb" cx="415.496" cy="-153.808" rx="4" ry="4"/>
</g>
<!-- 870&#45;&gt;28 -->
<g id="edge58" class="edge">
<title>870&#45;&gt;28</title>
<path fill="none" stroke="#bbbbbb" stroke-dasharray="1,5" d="M421.0405,-185.3673C421.741,-185.651 422.437,-185.9328 423.1255,-186.2116"/>
<ellipse fill="none" stroke="#bbbbbb" cx="417.1979" cy="-183.8115" rx="4" ry="4"/>
</g>
<!-- 976 -->
<g id="node37" class="node">
<title>976</title>
<polygon fill="#111111" stroke="transparent" points="360.1319,-750.0144 324.1319,-750.0144 324.1319,-714.0144 360.1319,-714.0144 360.1319,-750.0144"/>
<text text-anchor="middle" x="342.1319" y="-730.1144" font-family="Fira Sans Bold" font-size="8.00" fill="#ffffff">976</text>
</g>
<!-- 976&#45;&gt;21 -->
<g id="edge59" class="edge">
<title>976&#45;&gt;21</title>
<path fill="none" stroke="#bbbbbb" stroke-dasharray="1,5" d="M335.126,-705.8652C333.7749,-700.8222 332.3292,-695.426 330.8856,-690.0378"/>
<ellipse fill="none" stroke="#bbbbbb" cx="336.2582" cy="-710.0911" rx="4" ry="4"/>
</g>
<!-- 999 -->
<g id="node38" class="node">
<title>999</title>
<polygon fill="#111111" stroke="transparent" points="281.6945,-282.2827 245.6945,-282.2827 245.6945,-246.2827 281.6945,-246.2827 281.6945,-282.2827"/>
<text text-anchor="middle" x="263.6945" y="-262.3827" font-family="Fira Sans Bold" font-size="8.00" fill="#ffffff">999</text>
</g>
<!-- 999&#45;&gt;24 -->
<g id="edge60" class="edge">
<title>999&#45;&gt;24</title>
<path fill="none" stroke="#bbbbbb" stroke-dasharray="1,5" d="M289.2305,-277.0156C290.1992,-277.4986 291.1768,-277.9861 292.1599,-278.4763"/>
<ellipse fill="none" stroke="#bbbbbb" cx="285.62" cy="-275.2153" rx="4" ry="4"/>
</g>
</g>
</svg>
